<svg width="16" height="16" viewBox="0 0 16 16" fill="none" xmlns="http://www.w3.org/2000/svg">
<path d="M6.93138 2.59636C7.63801 2.46788 8.36203 2.46788 9.06866 2.59636C12.2439 3.17367 14.3866 6.16849 13.9078 9.36007L13.9024 9.39642C12.9352 9.44717 12.1667 10.2474 12.1667 11.2272V12.5605C12.1667 13.5731 12.9875 14.3939 14 14.3939C15.0125 14.3939 15.8334 13.5731 15.8334 12.5605V11.2272C15.8334 10.5333 15.4481 9.93012 14.8802 9.61875L14.8968 9.50841C15.4556 5.78258 12.9543 2.28644 9.24755 1.61249C8.42262 1.4625 7.57741 1.4625 6.75249 1.61249C3.04574 2.28644 0.5444 5.78257 1.10328 9.50841L1.11983 9.61875C0.551923 9.93012 0.166687 10.5333 0.166687 11.2272V12.5605C0.166687 13.5731 0.987498 14.3939 2.00002 14.3939C3.01254 14.3939 3.83335 13.5731 3.83335 12.5605V11.2272C3.83335 10.2474 3.06479 9.44717 2.09766 9.39642L2.09221 9.36007C1.61347 6.16849 3.75615 3.17367 6.93138 2.59636Z" fill="#FAFDFF"/>
<path d="M5.02024 8.87364C4.82498 8.67838 4.5084 8.67838 4.31313 8.87364C4.11787 9.0689 4.11787 9.38549 4.31313 9.58075L4.5798 9.84742C4.62092 9.88854 4.63775 9.90539 4.65126 9.91929C5.71977 11.0188 5.71977 12.7689 4.65126 13.8684C4.63775 13.8823 4.62092 13.8992 4.5798 13.9403L4.31313 14.207C4.11787 14.4022 4.11787 14.7188 4.31313 14.9141C4.5084 15.1093 4.82498 15.1093 5.02024 14.9141L5.29051 14.6438C5.32695 14.6074 5.34931 14.585 5.36842 14.5653C6.81405 13.0777 6.81405 10.71 5.36842 9.22238C5.34927 9.20268 5.32701 9.18041 5.29044 9.14384L5.02024 8.87364Z" fill="#FAFDFF"/>
<path d="M11.6869 9.58075C11.8822 9.38549 11.8822 9.0689 11.6869 8.87364C11.4916 8.67838 11.1751 8.67838 10.9798 8.87364L10.7096 9.14381C10.673 9.1804 10.6508 9.20267 10.6316 9.22238C9.18599 10.71 9.18599 13.0777 10.6316 14.5653C10.6508 14.585 10.673 14.6073 10.7096 14.6438L10.9798 14.9141C11.1751 15.1093 11.4916 15.1093 11.6869 14.9141C11.8822 14.7188 11.8822 14.4022 11.6869 14.207L11.4202 13.9403C11.3791 13.8992 11.3623 13.8823 11.3488 13.8684C10.2803 12.7689 10.2803 11.0188 11.3488 9.91929C11.3623 9.90539 11.3791 9.88854 11.4202 9.84742L11.6869 9.58075Z" fill="#FAFDFF"/>
</svg>
