<svg width="901" height="105" viewBox="0 0 901 105" fill="none" xmlns="http://www.w3.org/2000/svg">
<path d="M898.934 59.0161C853 43.5 730 59.0161 724 59.0161C672 65.5 655.089 94.9247 685.46 101.066C735.177 111.118 768.142 79.7992 770.532 61.9677C788.041 18.937 621.753 32.6117 507.039 59.2732C410.704 81.6631 422.593 1.6771 208.185 1.67709C158 1.67708 82.6062 4.92712 44.6336 21.9007C-14.1113 48.1595 -0.539009 37.66 18.83 14.611C49.0633 -21.3666 13.0113 24.8924 2.37721 37.2289C1.84009 37.852 2.35894 38.8218 3.1778 38.9009C56.9385 44.0884 -45.191 39.2429 51.0477 37.1482" stroke="#6B8AF8" stroke-width="3" stroke-linecap="round" stroke-dasharray="5 8"/>
</svg>
