<svg width="636" height="172" viewBox="0 0 636 172" fill="none" xmlns="http://www.w3.org/2000/svg">
<path d="M634.567 40.2491C613.27 34.4553 493.184 -9.8403 422.336 37.2155C406.421 46.1447 392.926 52.1614 387.91 64.0696C377.71 88.2824 441.438 74.0627 452.018 51.9911C473.211 7.77635 418.398 -11.9832 350.874 12.4811C319.642 23.7966 292.697 42.6902 281.162 62.5734C275.743 71.9147 274.839 84.8112 295.424 81.0524C341.233 72.6875 360.789 33.9887 334.223 22.1714C291.454 3.14655 126.101 20.7748 35.1145 129.403C19.1963 147.357 3.72008 171.145 10.9522 168.591C25.2395 163.546 48.5 130.5 40 143.5C24.981 158.339 19.7287 162.28 12.056 170.103C8.48976 173.74 6.00002 150.5 1.50002 137.5" stroke="#466DF7" strokeWidth="2" strokeLinecap="round" strokeLinejoin="round" strokeDasharray="5 8"/>
</svg>
