<svg width="64" height="64" viewBox="0 0 64 64" fill="none" xmlns="http://www.w3.org/2000/svg">
<path d="M32 64C49.6731 64 64 49.6731 64 32C64 14.3269 49.6731 0 32 0C14.3269 0 0 14.3269 0 32C0 49.6731 14.3269 64 32 64Z" fill="#FAFDFF"/>
<path d="M31.6181 14.6837H21.6757V30.0928H17.5909V33.8646H21.6757V49.2736H33.2694C33.2694 49.2736 49.5648 50.6381 49.5648 32.2655C49.5648 13.8929 33.982 14.6837 31.6268 14.6837H31.6181ZM32.9999 42.8771H28.2026V33.8646H35.3986V30.0928H28.2026V21.0803H32.774C34.4861 21.0803 43.0901 21.7669 43.0988 32.3959C43.1075 43.0249 34.2254 42.8858 32.9913 42.8858L32.9999 42.8771Z" fill="url(#paint0_linear_534_4690)"/>
<defs>
<linearGradient id="paint0_linear_534_4690" x1="54.037" y1="11.3411" x2="6.85923" y2="50.6228" gradientUnits="userSpaceOnUse">
<stop offset="0.197917" stop-color="#082CAD"/>
<stop offset="1" stop-color="#8FA5F4"/>
</linearGradient>
</defs>
</svg>
