<svg width="65" height="64" viewBox="0 0 65 64" fill="none" xmlns="http://www.w3.org/2000/svg">
<path d="M32.5 64C50.1731 64 64.5 49.6731 64.5 32C64.5 14.3269 50.1731 0 32.5 0C14.8269 0 0.5 14.3269 0.5 32C0.5 49.6731 14.8269 64 32.5 64Z" fill="#FAFDFF"/>
<path d="M31.8829 9.09938C32.9692 8.53447 34.299 9.8468 33.7167 10.9332C33.3777 11.8196 32.1088 12.0543 31.457 11.3764C30.7704 10.7333 30.9964 9.44702 31.8742 9.09938M20.1849 10.3596C20.8454 10.0901 21.6797 10.6898 21.6102 11.4112C21.6797 12.1934 20.7237 12.767 20.0545 12.3932C19.1594 12.0456 19.2636 10.6029 20.1849 10.3596ZM44.1197 12.4193C43.0855 12.2976 42.929 10.6724 43.9198 10.3422C44.6933 9.96847 45.3973 10.6724 45.5102 11.4025C45.3451 12.0282 44.8237 12.5931 44.1197 12.4193ZM22.8443 15.3308C23.9481 14.6355 25.5211 15.6697 25.356 16.956C25.2952 18.2509 23.583 18.9983 22.6097 18.1293C21.671 17.4427 21.8101 15.8696 22.8443 15.3395M39.6873 16.0782C40.1827 14.8093 42.1729 14.7746 42.7378 16.0087C43.2941 16.9734 42.6075 18.164 41.6254 18.4856C40.3218 18.7289 39.079 17.3123 39.696 16.0782M30.4663 18.4161C30.4576 17.3297 31.4483 16.5127 32.4825 16.4345C33.1691 16.5736 33.9165 16.8691 34.212 17.5557C34.7596 18.5117 34.2729 19.8327 33.2821 20.2672C32.8302 20.5193 32.2913 20.4237 31.796 20.3976C31.0399 20.0239 30.4054 19.3025 30.4663 18.4074M13.0844 19.9978C14.0925 19.3808 15.4483 20.5106 15.0746 21.6056C14.866 22.5529 13.5885 22.9353 12.8671 22.3357C12.0936 21.7708 12.2153 20.4063 13.0931 19.9978M50.4119 19.9978C51.2636 19.3373 52.6803 20.0934 52.576 21.1711C52.6368 22.1532 51.4114 22.9006 50.5684 22.3878C49.6297 21.9706 49.5341 20.528 50.4119 19.9891M35.3592 21.9533C36.7672 21.4492 38.4445 22.0489 39.2528 23.309C40.3131 24.8473 39.7482 27.1939 38.1056 28.0717C36.4022 29.1146 33.9079 28.2281 33.2734 26.3248C32.5608 24.6214 33.6037 22.4834 35.3592 21.9533ZM27.0768 22.1184C28.6412 21.3797 30.7444 21.9967 31.5005 23.5958C32.3869 25.1515 31.7004 27.3243 30.1099 28.1238C28.5195 29.0277 26.2685 28.3411 25.5037 26.6724C24.6433 25.0559 25.4081 22.8571 27.0768 22.1184ZM18.7856 24.9516C18.9073 23.9435 19.8546 23.2917 20.8106 23.2221C21.8449 23.3438 22.6705 24.1521 22.7835 25.195C22.7139 26.2292 21.9144 27.246 20.8193 27.2374C19.6113 27.3416 18.551 26.1423 18.7856 24.9516ZM43.2767 23.4394C44.5195 22.7181 46.2403 23.7697 46.1795 25.195C46.2664 26.7072 44.363 27.7675 43.1289 26.881C41.8427 26.1423 41.947 24.0652 43.2767 23.4394ZM23.7047 28.7583C25.1561 28.3585 26.8074 29.0451 27.52 30.3748C28.3022 31.7132 27.9806 33.5817 26.7726 34.5638C25.2256 36.0065 22.3576 35.4242 21.532 33.4601C20.5847 31.6523 21.7319 29.2363 23.7047 28.7583ZM39.4092 28.7583C40.8171 28.3585 42.4771 28.8973 43.2332 30.1836C44.2327 31.6523 43.7547 33.8425 42.2685 34.7898C40.7042 35.8848 38.2881 35.3112 37.4277 33.5904C36.3848 31.8088 37.4277 29.2971 39.4179 28.7583M14.388 30.4356C15.6395 29.9663 17.0301 31.3482 16.5173 32.5823C16.2044 33.7121 14.614 34.1293 13.7884 33.2949C12.8237 32.5127 13.18 30.7659 14.3793 30.4269M48.3174 32.2259C48.2827 31.1917 49.0388 30.2705 50.1077 30.2096C50.9682 30.3487 51.8025 31.0353 51.733 31.9739C51.8112 33.208 50.325 34.0423 49.2734 33.4687C48.778 33.2167 48.526 32.7126 48.3174 32.2259ZM8.21748 31.0353C8.97359 30.705 9.90352 31.3568 9.7297 32.1999C9.68624 33.1472 8.287 33.5122 7.77424 32.7213C7.32231 32.1738 7.59173 31.3221 8.21748 31.044V31.0353ZM55.7134 31.0179C56.2435 30.6442 57.0953 30.9136 57.3038 31.5307C57.6602 32.2086 57.0083 33.1385 56.2435 33.0168C55.1746 33.1124 54.8269 31.4872 55.7134 31.0179ZM27.7894 35.5633C29.771 35.0505 31.9003 36.7018 31.9176 38.7441C32.048 40.8039 29.9448 42.6377 27.9198 42.1597C26.3554 41.9076 25.1213 40.3954 25.1735 38.8137C25.1735 37.3014 26.312 35.8848 27.7981 35.5719M35.646 35.5719C37.6537 35.007 39.8525 36.6931 39.8177 38.7789C39.922 40.8039 37.8883 42.5681 35.9068 42.1684C34.0382 41.925 32.6564 39.874 33.1778 38.0576C33.4385 36.8495 34.4554 35.8674 35.646 35.5719ZM20.5064 36.8321C21.897 36.5975 23.2006 38.1445 22.6357 39.4655C22.2273 40.8734 20.1762 41.2558 19.2636 40.1086C18.2034 39.0049 18.9942 36.9799 20.4978 36.8321M43.52 36.893C44.7628 36.3715 46.2837 37.4492 46.1881 38.7963C46.2403 40.2824 44.3544 41.2993 43.1463 40.4389C41.7732 39.6654 42.0252 37.371 43.52 36.9017M49.9513 43.359C49.4646 42.4552 50.3511 41.2558 51.3506 41.4209C51.8546 41.4209 52.2023 41.8033 52.5238 42.1423C52.5934 42.6811 52.6976 43.3243 52.2544 43.7327C51.646 44.4975 50.2816 44.2803 49.9513 43.3677M13.067 41.6817C14.0056 41.0559 15.3614 41.9858 15.1528 43.0896C15.0399 44.063 13.8144 44.6192 13.0062 44.063C12.1371 43.5589 12.1718 42.1336 13.067 41.6817ZM31.6395 43.7153C32.8736 43.1678 34.438 44.2455 34.325 45.6013C34.4119 47.0961 32.4739 48.139 31.2745 47.2352C29.9361 46.4617 30.1621 44.1933 31.6482 43.7153M23.0442 45.723C24.0958 45.1754 25.5037 46.1227 25.4081 47.296C25.4429 48.2607 24.4956 49.0777 23.5483 48.9386C22.7574 48.9212 22.2446 48.2172 21.9926 47.548C22.0013 46.818 22.3055 46.0011 23.0442 45.723ZM40.4695 45.7403C41.5472 45.0711 43.0768 46.0271 42.9812 47.2873C43.0073 48.5996 41.2778 49.4427 40.2696 48.5736C39.2962 47.8957 39.4179 46.2792 40.4695 45.7403ZM43.5026 53.2319C43.0246 52.5106 43.5896 51.6328 44.363 51.4677C44.9888 51.598 45.6493 52.0673 45.5189 52.7887C45.4233 53.7708 43.9893 54.0749 43.5026 53.2319ZM19.4462 52.5975C19.6374 52.0239 20.098 51.4503 20.7759 51.598C21.7666 51.6675 22.0534 53.1537 21.193 53.6143C20.4195 54.1358 19.5157 53.4231 19.4462 52.5975ZM31.0485 53.258C31.2397 52.4063 32.3348 51.9978 33.0648 52.4497C33.5428 52.6583 33.6819 53.1885 33.8036 53.6491C33.734 53.8837 33.6819 54.1271 33.6211 54.3617C33.3256 54.7181 32.9432 55.0657 32.4478 55.057C31.5265 55.1613 30.7009 54.1271 31.0485 53.2667" fill="url(#paint0_linear_534_4721)"/>
<defs>
<linearGradient id="paint0_linear_534_4721" x1="64.3771" y1="4.51884" x2="0.513818" y2="66.7784" gradientUnits="userSpaceOnUse">
<stop offset="0.197917" stop-color="#082CAD"/>
<stop offset="1" stop-color="#8FA5F4"/>
</linearGradient>
</defs>
</svg>
