<svg width="64" height="64" viewBox="0 0 64 64" fill="none" xmlns="http://www.w3.org/2000/svg">
<path d="M32 0C49.6687 0 64 14.3313 64 32C64 49.6687 49.6687 64 32 64C14.3313 64 0 49.6773 0 32C0 14.3226 14.3313 0 32 0Z" fill="#FAFDFF"/>
<path d="M35.9543 27.7327V22.9701H46.844V15.7132H17.1992V22.9701H28.089V27.7241C19.2416 28.1325 12.5844 29.8794 12.5844 31.9826C12.5844 34.0858 19.2416 35.8327 28.089 36.2412V51.4937H35.9629V36.2412C44.7929 35.8327 51.4328 34.0858 51.4328 31.9826C51.4328 29.8794 44.7929 28.1325 35.9629 27.7241M35.9629 34.9462C35.737 34.9549 34.5985 35.0244 32.0607 35.0244C30.027 35.0244 28.6017 34.9636 28.0977 34.9375C20.2845 34.5986 14.4442 33.2341 14.4442 31.6089C14.4442 29.9837 20.2758 28.6192 28.0977 28.2716V33.5904C28.6104 33.6252 30.0705 33.7121 32.0955 33.7121C34.5203 33.7121 35.7457 33.6078 35.9716 33.5904V28.2716C43.7761 28.6192 49.599 29.9837 49.599 31.6089C49.599 33.2341 43.7761 34.5986 35.9716 34.9462" fill="url(#paint0_linear_534_4677)"/>
<defs>
<linearGradient id="paint0_linear_534_4677" x1="56.8665" y1="12.2634" x2="7.29509" y2="60.7825" gradientUnits="userSpaceOnUse">
<stop offset="0.197917" stop-color="#082CAD"/>
<stop offset="1" stop-color="#8FA5F4"/>
</linearGradient>
</defs>
</svg>
