<svg width="65" height="64" viewBox="0 0 65 64" fill="none" xmlns="http://www.w3.org/2000/svg">
<path d="M32.5 64C50.1731 64 64.5 49.6731 64.5 32C64.5 14.3269 50.1731 0 32.5 0C14.8269 0 0.5 14.3269 0.5 32C0.5 49.6731 14.8269 64 32.5 64Z" fill="#FAFDFF"/>
<path d="M48.3557 13.4585H54.8304L41.3595 26.7991C36.4752 31.6312 28.5664 31.6312 23.6908 26.7991L10.2112 13.4585H16.6946L26.9325 23.5921C30.0352 26.6513 35.0151 26.6513 38.1178 23.5921L48.3644 13.4585H48.3557Z" fill="url(#paint0_linear_534_4704)"/>
<path d="M16.599 50.5514H10.1156L23.6735 37.1326C28.5578 32.3004 36.4665 32.3004 41.3421 37.1326L54.8999 50.5514H48.4252L38.1004 40.3309C34.9977 37.2717 30.0178 37.2717 26.9152 40.3309L16.5904 50.5514H16.599Z" fill="url(#paint1_linear_534_4704)"/>
<defs>
<linearGradient id="paint0_linear_534_4704" x1="61.0713" y1="11.8229" x2="44.2358" y2="51.7398" gradientUnits="userSpaceOnUse">
<stop offset="0.197917" stop-color="#082CAD"/>
<stop offset="1" stop-color="#8FA5F4"/>
</linearGradient>
<linearGradient id="paint1_linear_534_4704" x1="61.1639" y1="31.8653" x2="44.24" y2="71.9553" gradientUnits="userSpaceOnUse">
<stop offset="0.197917" stop-color="#082CAD"/>
<stop offset="1" stop-color="#8FA5F4"/>
</linearGradient>
</defs>
</svg>
