<svg width="136" height="136" viewBox="0 0 136 136" fill="none" xmlns="http://www.w3.org/2000/svg">
<path d="M66.4868 45.1204C66.9915 43.5155 69.0085 43.5155 69.5133 45.1204C70.8309 49.3094 74.6674 52.2736 79.1348 52.2736C79.5702 52.2736 79.8491 52.4028 80.057 52.5689C80.2941 52.7583 80.5193 53.0677 80.6481 53.4772C80.9082 54.3043 80.6842 55.0686 80.0246 55.5637C76.4962 58.2117 75.0838 62.8305 76.395 66.9988C76.6834 67.9158 76.357 68.6458 75.7715 69.0853C75.4717 69.3103 75.159 69.4081 74.8983 69.4162C74.6735 69.4232 74.3724 69.3708 73.992 69.0853C70.4287 66.411 65.5713 66.411 62.008 69.0853C61.6276 69.3708 61.3265 69.4232 61.1017 69.4162C60.841 69.4081 60.5283 69.3103 60.2286 69.0853C59.643 68.6458 59.3166 67.9158 59.605 66.9988C60.9162 62.8305 59.5038 58.2117 55.9754 55.5637C55.3158 55.0686 55.0918 54.3043 55.3519 53.4772C55.4807 53.0677 55.7059 52.7583 55.943 52.5689C56.1509 52.4028 56.4298 52.2736 56.8652 52.2736C61.3326 52.2736 65.1691 49.3094 66.4868 45.1204Z" fill="#466DF7"/>
<path fill-rule="evenodd" clip-rule="evenodd" d="M46.5985 8.67818C51.5144 7.08089 57.4146 7.08182 67.0835 7.08334H68.9177C78.5866 7.08182 84.4868 7.08089 89.4027 8.67818C99.3223 11.9013 107.099 19.6784 110.323 29.598L110.371 29.7501H112.027C133.025 29.7501 142.045 56.3952 125.365 69.1504L125.305 69.1966L111.358 79.0928C110.837 79.462 110.299 79.8047 109.745 80.1197C109.685 80.2778 109.623 80.4356 109.56 80.5933C108.112 84.1894 105.286 88.5044 102.568 91.2687C98.139 95.7736 93.5554 97.7712 86.236 100.961L85.7496 101.173C82.5969 102.548 79.409 103.795 76.4491 104.704C75.0472 105.135 73.6321 105.511 72.2506 105.784V120.417H90.6673C93.0145 120.417 94.9173 122.32 94.9173 124.667C94.9173 127.014 93.0145 128.917 90.6673 128.917H45.3339C42.9867 128.917 41.0839 127.014 41.0839 124.667C41.0839 122.32 42.9867 120.417 45.3339 120.417H63.7506V105.784C62.3691 105.511 60.954 105.135 59.5521 104.704C56.5922 103.795 53.4043 102.548 50.2516 101.173L49.7652 100.961C42.4458 97.7712 37.8622 95.7736 33.433 91.2687C30.7151 88.5044 27.8892 84.1894 26.4414 80.5933C26.3762 80.4312 26.3126 80.269 26.2508 80.1065C25.7085 79.8056 25.1828 79.4748 24.6761 79.1153L10.697 69.1966L10.6366 69.1504C-6.04331 56.3952 2.9769 29.7501 23.975 29.7501H25.6298L25.6787 29.598C28.9018 19.6784 36.6789 11.9013 46.5985 8.67818ZM24.2713 38.2501H23.975C11.1292 38.2501 5.59736 54.5204 15.7434 62.3549L24.1972 68.3532C24.0831 65.6206 24.0835 62.566 24.0839 59.024L24.0839 50.5244C24.0837 45.5422 24.0836 41.5657 24.2713 38.2501ZM111.804 68.3537L120.259 62.3549C130.405 54.5204 124.873 38.2501 112.027 38.2501H111.73C111.918 41.5654 111.917 45.5424 111.917 50.5239L111.917 59.0293C111.918 62.5692 111.918 65.6222 111.804 68.3537ZM77.6216 42.57C74.6216 33.0324 61.3784 33.0324 58.3784 42.57C58.1287 43.364 57.4699 43.7736 56.8652 43.7736C46.8041 43.7736 43.266 56.6527 50.8732 62.362C51.4483 62.7936 51.7529 63.6338 51.4967 64.4484C50.0327 69.1026 51.9166 73.4747 55.1263 75.8836C58.3559 78.3075 63.1325 78.869 67.1103 75.8836C67.6504 75.4782 68.3496 75.4782 68.8898 75.8836C72.8676 78.869 77.6441 78.3075 80.8737 75.8836C84.0834 73.4747 85.9673 69.1026 84.5033 64.4484C84.2471 63.6338 84.5517 62.7936 85.1268 62.362C92.7341 56.6527 89.1959 43.7736 79.1348 43.7736C78.5301 43.7736 77.8714 43.364 77.6216 42.57Z" fill="#466DF7"/>
</svg>
