<svg width="136" height="136" viewBox="0 0 136 136" fill="none" xmlns="http://www.w3.org/2000/svg">
<path d="M35.0467 22.5371L51.9146 74.3357C51.9562 74.4635 52.0033 74.5879 52.0555 74.7089V86.1334C52.0555 88.4806 53.9583 90.3834 56.3055 90.3834C58.6528 90.3834 60.5555 88.4806 60.5555 86.1334V20.2964C62.2298 19.5533 64.0497 19.1278 65.9704 18.8696C69.3408 18.4165 73.5863 18.4166 78.6776 18.4168L104.787 18.4168C121.044 18.4168 134.222 31.5954 134.222 47.852C134.222 52.5651 131.52 56.8606 127.271 58.9001L124.509 60.2258C117.986 63.3566 117.986 72.6436 124.509 75.7744L127.271 77.1C131.52 79.1396 134.222 83.4351 134.222 88.1482C134.222 104.405 121.044 117.583 104.787 117.583H56.3152C58.658 117.578 60.5555 115.677 60.5555 113.333V106.533C60.5555 104.186 58.6528 102.283 56.3055 102.283C53.9583 102.283 52.0555 104.186 52.0555 106.533V113.333C52.0555 115.676 53.9509 117.576 56.2918 117.583L38.6465 117.583C28.7686 117.583 19.6492 112.287 14.7551 103.706L13.6934 101.845C13.2312 101.035 12.875 100.168 12.6335 99.2672C11.5492 95.2206 12.8817 90.9107 16.0606 88.182L19.0354 85.6286C24.5253 80.9164 22.1217 71.9458 15.0111 70.6098L12.0004 70.0441C7.36829 69.1738 3.64573 65.7242 2.42588 61.1717C-1.78164 45.469 7.53702 29.3286 23.2397 25.1211L23.4577 25.0627C27.2607 24.0436 30.4339 23.1932 33.0704 22.7765C33.7351 22.6714 34.3934 22.5887 35.0467 22.5371Z" fill="#E8B229"/>
</svg>
