<svg width="136" height="136" viewBox="0 0 136 136" fill="none" xmlns="http://www.w3.org/2000/svg">
<path d="M60.9168 56.6666C60.9168 52.7546 64.0881 49.5833 68.0001 49.5833C71.9121 49.5833 75.0835 52.7546 75.0835 56.6666C75.0835 60.5786 71.9121 63.7499 68.0001 63.7499C64.0881 63.7499 60.9168 60.5786 60.9168 56.6666Z" fill="#2ECC3E"/>
<path fill-rule="evenodd" clip-rule="evenodd" d="M38.3708 22.9027C38.3708 14.1659 45.4534 7.08325 54.1902 7.08325H83.4643C91.2883 7.08325 97.6309 13.4259 97.6309 21.2499C97.6309 24.3795 100.168 26.9166 103.298 26.9166H106.637C115.618 26.9166 123.517 33.8865 123.151 43.4384C122.682 55.6844 120.303 75.3275 110.764 92.7111C108.179 97.4232 104.726 102.052 100.993 106.365L100.711 106.69C95.3413 112.895 90.8638 118.068 86.0501 121.595C80.8726 125.388 75.3465 127.277 68.0009 127.277C60.6552 127.277 55.1292 125.388 49.9516 121.595C45.1379 118.068 40.6604 112.895 35.2902 106.69L35.0092 106.365C31.2762 102.052 27.823 97.4232 25.2373 92.7111C16.0055 75.8869 13.4744 58.1257 12.8991 46.73C12.4146 37.132 20.3701 30.2221 29.3011 30.2221H31.0513C35.0938 30.2221 38.3708 26.9451 38.3708 22.9027ZM68.0001 41.0833C59.3937 41.0833 52.4168 48.0601 52.4168 56.6666C52.4168 63.7997 57.2094 69.8134 63.7501 71.6633V90.6666C63.7501 93.0138 65.6529 94.9166 68.0001 94.9166C70.3473 94.9166 72.2501 93.0138 72.2501 90.6666V71.6633C78.7909 69.8134 83.5835 63.7997 83.5835 56.6666C83.5835 48.0602 76.6066 41.0833 68.0001 41.0833Z" fill="#2ECC3E"/>
</svg>
