<svg width="136" height="136" viewBox="0 0 136 136" fill="none" xmlns="http://www.w3.org/2000/svg">
<path d="M36.8093 1.86514C38.9088 0.815439 41.4616 1.66639 42.5113 3.7658L42.8104 4.36404C45.004 8.75118 45.004 13.9151 42.8104 18.3022L42.5113 18.9004C41.4616 20.9999 38.9088 21.8508 36.8093 20.8011C34.7099 19.7514 33.859 17.1985 34.9087 15.0991L35.2078 14.5009C36.2049 12.5067 36.2049 10.1595 35.2078 8.16536L34.9087 7.56711C33.859 5.46771 34.7099 2.91485 36.8093 1.86514Z" fill="#F75B46"/>
<path d="M82.1427 1.86514C84.2421 0.815439 86.795 1.6664 87.8447 3.76581L88.1438 4.36405C90.3373 8.75118 90.3373 13.9151 88.1438 18.3022L87.8446 18.9005C86.7949 20.9999 84.2421 21.8508 82.1426 20.8011C80.0432 19.7514 79.1923 17.1985 80.242 15.0991L80.5411 14.5009C81.5382 12.5067 81.5382 10.1595 80.5411 8.16536L80.242 7.56711C79.1923 5.4677 80.0433 2.91484 82.1427 1.86514Z" fill="#F75B46"/>
<path d="M63.2773 1.86515C65.3767 2.91485 66.2277 5.46771 65.178 7.56712L64.8789 8.16537C63.8818 10.1595 63.8818 12.5067 64.8789 14.5009L65.178 15.0991C66.2277 17.1985 65.3767 19.7514 63.2773 20.8011C61.1779 21.8508 58.6251 20.9999 57.5754 18.9004L57.2762 18.3022C55.0827 13.9151 55.0827 8.75119 57.2762 4.36405L57.5754 3.7658C58.6251 1.66639 61.1779 0.815439 63.2773 1.86515Z" fill="#F75B46"/>
<path fill-rule="evenodd" clip-rule="evenodd" d="M62.3419 24.083C72.2812 24.0815 78.3215 24.0806 83.1563 25.6212C95.0478 29.4105 103.73 39.6595 105.513 52.0122C105.807 54.0533 105.819 56.1866 105.637 58.581C115.165 60.6806 122.293 69.1744 122.293 79.3331C122.293 91.0692 112.779 100.583 101.043 100.583C100.352 100.583 99.6685 100.55 98.9933 100.485L98.5028 103.428C97.8858 107.132 97.5088 109.394 96.9123 111.379C93.2078 123.704 82.5958 132.693 69.8296 134.321C67.7742 134.583 65.4806 134.583 61.7264 134.583H61.0275C57.2734 134.583 54.9792 134.583 52.9237 134.321C40.1575 132.693 29.5455 123.704 25.841 111.379C25.2445 109.394 24.8676 107.132 24.2505 103.428L19.1451 72.7963C17.5096 62.9925 16.5157 57.0345 17.2405 52.0122C19.0233 39.6595 27.7055 29.4105 39.5971 25.6212C41.3629 25.0585 43.2372 24.7098 45.3299 24.4894V50.9998H43.9132C40.7836 50.9998 38.2465 53.5369 38.2465 56.6665V67.9998C38.2465 71.1294 40.7836 73.6665 43.9132 73.6665H55.2465C58.3762 73.6665 60.9132 71.1294 60.9132 67.9998V56.6665C60.9132 53.5369 58.3762 50.9998 55.2465 50.9998H53.8299L53.8299 24.1075C56.029 24.0831 58.5025 24.0831 61.2999 24.0831L62.3419 24.083ZM100.396 92.0671C100.61 92.0777 100.826 92.0831 101.043 92.0831C108.085 92.0831 113.793 86.3747 113.793 79.3331C113.793 73.506 109.884 68.5919 104.545 67.0701C104.233 69.0476 103.867 71.24 103.46 73.6836L100.396 92.0671Z" fill="#F75B46"/>
</svg>
