<svg width="78" height="30" viewBox="0 0 78 30" fill="none" xmlns="http://www.w3.org/2000/svg">
<path d="M0.835632 28.0374C1.8303 29.3163 3.66145 29.5727 4.96913 28.6162L8.64789 25.9254C9.17216 25.542 9.48203 24.9314 9.48203 24.2819V22.4703C9.48203 21.5087 10.6774 20.9713 11.6391 20.9713V20.9713L12.0925 19.6781C12.3223 19.0227 12.3173 18.3079 12.0783 17.6559L11.6026 16.3576C10.4342 16.3576 9.48203 15.3989 9.48203 14.1706V10.558C9.48203 9.04604 8.05993 7.93743 6.59367 8.30636V8.30636C5.56174 8.56601 4.83839 9.49391 4.83839 10.558V21.4714C4.83839 22.3514 4.45155 23.1868 3.78052 23.7561L0 26.963L0.835632 28.0374Z" fill="#F53A21"/>
<path d="M11.6325 20.9713C12.3789 20.9713 13.0879 20.8431 13.746 20.6137C15.2349 20.0948 17.0133 20.1012 18.5037 20.6159C18.6667 20.6721 18.8328 20.7223 19.0018 20.7659C19.9505 21.0108 20.8372 20.3523 21.1614 19.4277V19.4277C21.3347 18.9336 21.3347 18.3952 21.1614 17.9011V17.9011C20.8372 16.9765 19.8488 16.4488 19.1285 15.7846C18.6984 15.388 18.4332 14.8166 18.4332 14.1706V10.5249C18.4332 9.02701 17.028 7.92636 15.5737 8.2852V8.2852C14.5435 8.53942 13.8195 9.4637 13.8195 10.5249V14.1706C13.8195 15.3989 12.8309 16.3576 11.6325 16.3576H11.6026L12.0783 17.6559C12.3173 18.3079 12.3223 19.0227 12.0925 19.6781L11.6391 20.9713H11.6325ZM7.86422 2.7712C7.86422 3.75568 8.6623 4.55376 9.64678 4.55376H16.8604C17.8448 4.55376 18.6429 3.75568 18.6429 2.7712V2.7712C18.6429 1.78673 17.8448 0.988647 16.8604 0.988647H9.64678C8.6623 0.988647 7.86422 1.78673 7.86422 2.7712V2.7712Z" fill="#F53A21"/>
<path d="M20.093 19.1885C20.402 20.2451 21.3709 20.9713 22.4718 20.9713V20.9713C23.2159 20.9713 23.9281 20.8439 24.5883 20.6159C26.0787 20.1012 27.8571 20.0948 29.346 20.6137C30.0041 20.8431 30.7131 20.9713 31.4595 20.9713L32.2059 18.7243L32.5172 16.3576C31.3188 16.3576 29.2725 15.3989 29.2725 14.1706V10.5249C29.2725 9.02701 27.8672 7.92636 26.413 8.2852V8.2852C25.3827 8.53942 24.6588 9.4637 24.6588 10.5249V14.1706C24.6588 15.3989 23.6702 16.3576 22.4718 16.3576H22.045C21.183 16.3576 20.4101 16.8883 20.1006 17.6928V17.6928C19.9366 18.119 19.9172 18.5873 20.0454 19.0256L20.093 19.1885ZM20.7641 25.7497C20.7641 26.7342 21.5622 27.5323 22.5467 27.5323H23.7637C24.4401 27.5323 24.9884 28.0806 24.9884 28.7569V28.7569C24.9884 29.5877 25.798 30.1773 26.5887 29.9225L27.3569 29.6749C28.1058 29.4335 28.6134 28.7366 28.6134 27.9497V26.963C28.6134 25.3085 27.2721 23.9672 25.6175 23.9672H22.5467C21.5622 23.9672 20.7641 24.7652 20.7641 25.7497V25.7497Z" fill="#1635A3"/>
<path d="M31.4595 20.9713H32.5172H33.5657C37.3106 20.9713 40.3664 17.9154 40.3664 14.1706V10.5249C40.3664 9.02701 38.9612 7.92636 37.5069 8.2852V8.2852C36.4767 8.53942 35.7527 9.4637 35.7527 10.5249V14.1706C35.7527 15.3989 34.7641 16.3576 33.5657 16.3576H32.5172L32.2059 18.7243L31.4595 20.9713ZM31.2289 25.7347C31.2289 26.7275 32.0337 27.5323 33.0265 27.5323H37.3406C38.3333 27.5323 39.1381 26.7275 39.1381 25.7347V25.7347C39.1381 24.742 38.3333 23.9372 37.3406 23.9372H33.0265C32.0337 23.9372 31.2289 24.742 31.2289 25.7347V25.7347Z" fill="#1635A3"/>
<path d="M41.4682 26.1106C42.3847 27.4907 44.2473 27.8649 45.6257 26.946L47.1746 25.9134C47.7351 25.5397 48.0717 24.9107 48.0717 24.2372V21.8417C48.0717 21.1353 49.291 20.7266 49.9737 20.9081V20.9081C50.3215 21.0006 50.3085 20.7439 50.4276 20.4043L51.0377 18.6644L50.1812 16.1029C49.8067 15.7284 48.0717 15.3989 48.0717 14.1706V10.558C48.0717 9.04604 46.6496 7.93743 45.1834 8.30636V8.30636C44.1514 8.56601 43.4281 9.49391 43.4281 10.558V21.2646C43.4281 22.2612 42.9326 23.1925 42.1061 23.7493L40.582 24.776L41.4682 26.1106Z" fill="#1635A3"/>
<path d="M50.2222 20.9713H70.7441C74.489 20.9713 77.5747 17.9154 77.5747 14.1706C77.5747 10.4257 74.489 7.39986 70.7441 7.39986H60.1686L64.0391 4.68329C65.057 3.96885 65.2701 2.54808 64.5066 1.56644V1.56644C63.8164 0.678975 62.5637 0.463511 61.6166 1.06935L53.0951 6.52037C52.2384 7.06833 51.7202 8.0151 51.7202 9.032V9.032C51.7202 10.6787 53.055 12.0135 54.7017 12.0135H70.7441C71.9424 12.0135 72.9311 12.9722 72.9311 14.1706C72.9311 15.3989 71.9424 16.3576 70.7441 16.3576L50.1812 16.1029L50.5557 17.2264L51.0377 18.6644L50.2222 20.9713Z" fill="#1635A3"/>
</svg>
